<svg width="500" height="500" viewBox="0 0 500 500" fill="none" xmlns="http://www.w3.org/2000/svg">
<rect width="500" height="500" fill="black"/>
<path d="M125.866 344V223.1C125.866 211.4 130.666 201.2 147.766 201.2C164.866 201.2 169.666 211.4 169.666 223.1V344C169.666 355.7 164.866 365.9 147.766 365.9C130.666 365.9 125.866 355.7 125.866 344ZM124.966 163.7C124.966 151.1 135.166 140.9 147.766 140.9C160.366 140.9 170.566 151.1 170.566 163.7C170.566 176.3 160.366 186.5 147.766 186.5C135.166 186.5 124.966 176.3 124.966 163.7ZM284.363 227.6L325.463 236.9C370.463 247.1 381.863 273.8 381.863 299C381.863 338 352.463 367.1 293.063 367.1C230.663 367.1 202.763 335.9 202.763 312.5C202.763 300.5 211.463 292.1 223.463 292.1C250.163 292.1 243.263 331.1 293.063 331.1C318.563 331.1 332.663 317 332.663 302.6C332.663 293.9 328.463 284.3 311.663 280.1L256.163 266C211.463 254.6 203.363 230 203.363 206.9C203.363 158.9 247.763 140.9 289.463 140.9C327.863 140.9 373.163 162.5 373.163 191.3C373.163 203.6 362.663 210.8 350.663 210.8C327.863 210.8 332.063 178.7 286.163 178.7C263.363 178.7 250.763 189.2 250.763 204.2C250.763 219.2 268.762 224 284.363 227.6Z" fill="white"/>
</svg>
